<svg width="50" height="24" viewBox="0 0 50 24" fill="none" xmlns="http://www.w3.org/2000/svg">
<path fill-rule="evenodd" clip-rule="evenodd" d="M11.0718 23.9826C10.1962 23.9051 9.40501 23.7607 8.5994 23.5313C7.78488 23.2993 7.42475 23.1576 6.5683 22.732C5.39946 22.1511 4.43008 21.4415 3.46119 20.4576C2.4922 19.4735 1.87215 18.6061 1.25458 17.3707C0.576213 16.0137 0.151209 14.5238 0.0345896 13.0939C-0.0167034 12.465 -0.010122 11.3757 0.0488319 10.7441C0.250487 8.58282 1.16944 6.30933 2.5577 4.53713C4.92595 1.51395 8.66132 -0.196949 12.4239 0.0181199C13.8115 0.097469 14.8914 0.331351 16.1507 0.825391L16.6853 1.03511L15.92 1.79796L15.1547 2.5608L14.9366 2.48554C14.6204 2.37648 13.8305 2.17901 13.4059 2.10293C12.7795 1.99067 12.2151 1.95155 11.5419 1.97376C9.68669 2.03492 7.99325 2.57839 6.44043 3.6109C4.09276 5.17196 2.49362 7.67544 2.08147 10.435C2.01193 10.9005 2.00169 11.1022 2.00228 11.9937C2.00326 13.4034 2.09324 14.0233 2.45323 15.1003C2.99579 16.7236 3.73799 17.9398 4.89085 19.0947C5.62608 19.8312 6.14347 20.2319 6.99407 20.7235C7.55888 21.0499 7.83119 21.1773 8.44601 21.4028C9.73157 21.8744 10.4971 22.008 11.8901 22.0041C12.6402 22.002 12.875 21.9888 13.259 21.927C13.9092 21.8225 14.3742 21.7027 15.0589 21.4635C15.3845 21.3497 15.6799 21.2477 15.7153 21.2368C15.7645 21.2216 15.9465 21.3831 16.4901 21.9244C16.8808 22.3136 17.2005 22.6437 17.2005 22.658C17.2005 22.6723 17.0399 22.7644 16.8435 22.8627C15.8281 23.3709 14.5414 23.7468 13.2282 23.9189C12.8472 23.9688 11.3993 24.0116 11.0718 23.9826ZM36.4397 23.9647C35.388 23.8757 33.9795 23.5462 33.0734 23.1771C31.5669 22.5634 29.6573 21.1361 28.1888 19.526C27.0337 18.2596 26.0635 16.8665 25.2406 15.2929C25.0608 14.9489 24.9008 14.6672 24.8852 14.6669C24.8695 14.6667 24.7799 14.8302 24.6859 15.0304C24.0857 16.3082 23.0881 17.8331 22.0364 19.0798C21.6282 19.5636 20.3944 20.8103 20.3236 20.8103C20.3012 20.8103 19.9753 20.504 19.5994 20.1296L18.9159 19.4489L19.6197 18.7498C20.5524 17.8234 21.0608 17.2076 21.7443 16.1764C22.2321 15.4403 22.4521 15.061 22.8527 14.2652C23.1866 13.6018 23.8167 12.1242 23.8167 12.0044C23.8167 11.8842 23.2145 10.4892 22.8755 9.82429C22.5335 9.15343 22.0283 8.28733 21.6809 7.77635C20.8427 6.54328 19.7251 5.28952 18.6971 4.42876C18.573 4.32491 18.4563 4.22695 18.4377 4.21112C18.4044 4.18277 19.7629 2.79534 19.824 2.79534C19.8885 2.79534 20.5201 3.37199 21.0836 3.94541C22.054 4.93301 22.7608 5.81491 23.528 6.99536C23.8999 7.56756 24.5174 8.65197 24.7092 9.06933C24.7727 9.20776 24.8371 9.32098 24.8522 9.32098C24.8673 9.32098 25.0172 9.04635 25.1852 8.71066C26.8492 5.38685 29.5648 2.51234 32.3307 1.14706C33.6911 0.475505 35.1211 0.112947 36.7865 0.017423C38.0331 -0.0540815 39.5696 0.127391 40.7524 0.48585C42.0628 0.882977 43.2896 1.5059 44.4139 2.34521C46.3342 3.77856 47.809 5.80262 48.599 8.08875C48.8614 8.84819 49.1286 10.1556 49.2045 11.0519C49.2563 11.6638 49.2281 12.923 49.15 13.4843C48.9074 15.2294 48.3664 16.7973 47.525 18.1935C45.6746 21.2643 42.6555 23.3076 39.1526 23.8598C38.276 23.998 37.2857 24.0362 36.4397 23.9647ZM38.7031 21.9413C41.3069 21.5606 43.6437 20.1763 45.2119 18.0855C45.3695 17.8755 45.5622 17.6092 45.6403 17.4938C45.8167 17.2332 46.2244 16.4759 46.4085 16.0668C46.593 15.6568 46.9115 14.6763 47.0236 14.1731C47.2124 13.3254 47.2315 13.1248 47.2321 11.9937C47.2325 11.0653 47.2232 10.8786 47.1562 10.4768C47.0575 9.88403 46.9428 9.43084 46.7233 8.76561C45.8849 6.22609 44.0192 4.09609 41.6282 2.94883C40.8978 2.59835 40.5338 2.46357 39.8523 2.29102C38.1022 1.84804 36.5969 1.85321 34.8379 2.3082C33.8172 2.57222 33.1575 2.87962 32.1285 3.57074C30.3144 4.7891 28.5946 6.68969 27.3649 8.83503C26.897 9.6514 26.3444 10.8293 26.0634 11.6094C25.919 12.0102 25.916 11.9493 26.1063 12.4623C26.5116 13.5552 27.4374 15.2867 28.1792 16.3396C29.6252 18.3917 31.5767 20.1959 33.3753 21.1435C34.1429 21.5479 35.4842 21.9025 36.6312 22.0042C36.9566 22.0331 38.3687 21.9903 38.7031 21.9413Z" fill="white"/>
</svg>
